<svg width="40" height="40" viewBox="0 0 40 40" fill="none" xmlns="http://www.w3.org/2000/svg">
<path d="M13.0415 35H8.33317V15.6667L5.2915 8.33333H1.6665V5H7.5415L10.2915 11.6667H37.6248L31.6665 23.375C33.0832 23.5972 34.271 24.25 35.2298 25.3333C36.1876 26.4167 36.6665 27.6944 36.6665 29.1667C36.6665 30.7778 36.1043 32.1528 34.9798 33.2917C33.8543 34.4306 32.4859 35 30.8748 35C29.2359 35 27.8543 34.4306 26.7298 33.2917C25.6043 32.1528 25.0415 30.7778 25.0415 29.1667C25.0415 28.6111 25.1109 28.0972 25.2498 27.625C25.3887 27.1528 25.5832 26.6944 25.8332 26.25L20.3748 25.75L13.0415 35ZM28.0832 23.125L32.2082 15L11.6665 15.0417L14.5415 21.875L28.0832 23.125ZM11.6665 22.8333V31.625L16.6248 25.4167L12.5832 25.0417L11.6665 22.8333ZM30.8332 31.6667C31.5554 31.6667 32.1526 31.4233 32.6248 30.9367C33.0971 30.4511 33.3332 29.8611 33.3332 29.1667C33.3332 28.4444 33.0971 27.8472 32.6248 27.375C32.1526 26.9028 31.5554 26.6667 30.8332 26.6667C30.1387 26.6667 29.5487 26.9028 29.0632 27.375C28.5765 27.8472 28.3332 28.4444 28.3332 29.1667C28.3332 29.8611 28.5765 30.4511 29.0632 30.9367C29.5487 31.4233 30.1387 31.6667 30.8332 31.6667Z" fill="black"/>
</svg>
