<svg width="40" height="40" viewBox="0 0 150 150" fill="none" xmlns="http://www.w3.org/2000/svg">
<path d="M132.213 1.68516C132.213 1.68516 17.8664 1.65 17.8992 1.68516C7.35933 1.68516 1.43433 7.13438 1.43433 18.2648V133.029C1.43433 143.442 6.76167 148.894 17.2921 148.894H132.541C143.072 148.894 148.406 143.714 148.406 133.029V18.2648C148.409 7.40391 143.074 1.68516 132.213 1.68516ZM72.0679 54.7828C72.0679 58.3828 68.789 62.2383 64.5328 62.2383V123.023C64.5328 131.653 52.7718 131.653 52.7718 123.023V62.2383C48.6304 62.2383 45.0234 59.0484 45.0234 54.2695V20.8172C45.0234 17.9062 49.2304 17.7938 49.2304 20.932V45.6586H52.7531V20.7023C52.7531 18.0281 56.8054 17.857 56.8054 20.8172V45.6586H60.4453V20.7375C60.4453 17.9414 64.3781 17.8289 64.3781 20.8477V45.6586H67.9593V20.7375C67.9593 17.9719 72.0679 17.8617 72.0679 20.8477V54.7828ZM103.441 122.995C103.441 131.435 91.657 131.309 91.657 122.995V85.5375H85.3828V28.5914C85.3828 15.3352 103.444 15.3352 103.444 28.5914V122.995H103.441Z" fill="black"/>
</svg>
