<svg width="40" height="40" viewBox="0 0 150 150" fill="none" xmlns="http://www.w3.org/2000/svg">
<path d="M58.875 83.875C52.8333 83.875 47.6771 81.7396 43.4062 77.4688C39.1354 73.1979 37 68.0417 37 62C37 55.9583 39.1354 50.8021 43.4062 46.5312C47.6771 42.2604 52.8333 40.125 58.875 40.125C64.9167 40.125 70.0729 42.2604 74.3438 46.5312C78.6146 50.8021 80.75 55.9583 80.75 62C80.75 68.0417 78.6146 73.1979 74.3438 77.4688C70.0729 81.7396 64.9167 83.875 58.875 83.875ZM58.875 71.375C61.4792 71.375 63.6917 70.4625 65.5125 68.6375C67.3375 66.8167 68.25 64.6042 68.25 62C68.25 59.3958 67.3375 57.1833 65.5125 55.3625C63.6917 53.5375 61.4792 52.625 58.875 52.625C56.2708 52.625 54.0583 53.5375 52.2375 55.3625C50.4125 57.1833 49.5 59.3958 49.5 62C49.5 64.6042 50.4125 66.8167 52.2375 68.6375C54.0583 70.4625 56.2708 71.375 58.875 71.375ZM102.625 90.125C98.25 90.125 94.5521 88.6146 91.5312 85.5938C88.5104 82.5729 87 78.875 87 74.5C87 70.125 88.5104 66.4271 91.5312 63.4063C94.5521 60.3854 98.25 58.875 102.625 58.875C107 58.875 110.698 60.3854 113.719 63.4063C116.74 66.4271 118.25 70.125 118.25 74.5C118.25 78.875 116.74 82.5729 113.719 85.5938C110.698 88.6146 107 90.125 102.625 90.125ZM63.875 123.25C68.5625 113.771 74.8125 107.442 82.625 104.262C90.4375 101.087 97.1042 99.5 102.625 99.5C105.021 99.5 107.365 99.7083 109.656 100.125C111.948 100.542 114.188 101.062 116.375 101.688C118.875 97.7292 120.854 93.4583 122.312 88.875C123.771 84.2917 124.5 79.5 124.5 74.5C124.5 60.5417 119.656 48.7188 109.969 39.0312C100.281 29.3438 88.4583 24.5 74.5 24.5C60.5417 24.5 48.7188 29.3438 39.0312 39.0312C29.3438 48.7188 24.5 60.5417 24.5 74.5C24.5 79.1875 25.0979 83.6667 26.2938 87.9375C27.4938 92.2083 29.2917 96.1667 31.6875 99.8125C35.75 97.7292 40.0479 96.1146 44.5812 94.9688C49.1104 93.8229 53.875 93.25 58.875 93.25C62.2083 93.25 65.4125 93.5354 68.4875 94.1062C71.5583 94.6813 74.6042 95.4375 77.625 96.375C75.2292 97.625 72.9646 99.0833 70.8312 100.75C68.6938 102.417 66.6875 104.187 64.8125 106.062C63.5625 105.854 62.4958 105.75 61.6125 105.75H58.875C55.4375 105.75 52.1042 106.115 48.875 106.844C45.6458 107.573 42.5208 108.667 39.5 110.125C42.8333 113.458 46.5583 116.246 50.675 118.488C54.7875 120.725 59.1875 122.312 63.875 123.25ZM74.5 137C65.8542 137 57.7292 135.358 50.125 132.075C42.5208 128.796 35.9063 124.344 30.2813 118.719C24.6563 113.094 20.2042 106.479 16.925 98.875C13.6417 91.2708 12 83.1458 12 74.5C12 65.8542 13.6417 57.7292 16.925 50.125C20.2042 42.5208 24.6563 35.9063 30.2813 30.2813C35.9063 24.6563 42.5208 20.2021 50.125 16.9187C57.7292 13.6396 65.8542 12 74.5 12C83.1458 12 91.2708 13.6396 98.875 16.9187C106.479 20.2021 113.094 24.6563 118.719 30.2813C124.344 35.9063 128.796 42.5208 132.075 50.125C135.358 57.7292 137 65.8542 137 74.5C137 83.1458 135.358 91.2708 132.075 98.875C128.796 106.479 124.344 113.094 118.719 118.719C113.094 124.344 106.479 128.796 98.875 132.075C91.2708 135.358 83.1458 137 74.5 137Z" fill="black"/>
</svg>
